<?xml version="1.0" encoding="UTF-8"?>
<svg version="1.1" xmlns="http://www.w3.org/2000/svg" width="1616" height="980" viewBox="0 0 1616 980" >
<path d="M0 0 C16.60294758 -0.40494994 33.14306567 0.75084853 49.68359375 2.06640625 C50.84777832 2.15760742 52.01196289 2.24880859 53.21142578 2.34277344 C81.73927926 4.69023648 110.1861568 10.13476331 137.68359375 18.06640625 C138.91456787 18.41155273 138.91456787 18.41155273 140.17041016 18.76367188 C169.99304847 27.13452509 199.32906603 38.50168634 226.68359375 53.06640625 C227.46734375 53.47761719 228.25109375 53.88882813 229.05859375 54.3125 C240.39040241 60.272064 251.4584446 66.6245648 262.37109375 73.31640625 C263.43312012 73.96544922 264.49514648 74.61449219 265.58935547 75.28320312 C272.52454788 79.5788576 279.15105694 84.18256686 285.68359375 89.06640625 C286.26939209 89.49953125 286.85519043 89.93265625 287.45874023 90.37890625 C290.88608106 92.91590276 294.28213642 95.49488731 297.68359375 98.06640625 C298.71355469 98.83726563 299.74351562 99.608125 300.8046875 100.40234375 C318.38422566 113.64853522 334.50935638 128.70476365 350.05737305 144.25488281 C351.87465363 146.06996182 353.69983208 147.87684532 355.52539062 149.68359375 C362.38173019 156.50748118 368.66856544 163.48268367 374.68359375 171.06640625 C375.67809273 172.2307574 376.68078048 173.38821832 377.6953125 174.53515625 C401.62828492 201.60752516 421.97220764 233.64294897 437.72900391 266.13085938 C438.64842665 267.99510069 439.60125697 269.83693196 440.5703125 271.67578125 C449.65086482 289.03538816 456.75537428 307.51315099 462.98730469 326.0690918 C463.48820615 327.50593431 464.01557579 328.93364919 464.55957031 330.35473633 C467.84431714 338.98988707 470.21981147 347.82674959 472.55859375 356.75390625 C472.77702942 357.58687225 472.99546509 358.41983826 473.22052002 359.27804565 C483.44243742 398.49783051 488.89193237 438.75769936 488.93359375 479.31640625 C488.93493317 480.10210999 488.93627258 480.88781372 488.93765259 481.69732666 C488.93115265 499.58829221 487.55633889 517.28424527 485.68359375 535.06640625 C485.57144531 536.16082031 485.45929687 537.25523437 485.34375 538.3828125 C480.12671228 587.78365114 465.34056404 636.04958991 444.68359375 681.06640625 C444.26996582 681.97874023 443.85633789 682.89107422 443.43017578 683.83105469 C430.99764966 711.18160994 415.36023743 736.80705412 397.68359375 761.06640625 C397.18859375 761.74832031 396.69359375 762.43023438 396.18359375 763.1328125 C389.95564519 771.68002315 383.44001544 779.87011826 376.48046875 787.83203125 C373.98058032 790.69726197 371.6069728 793.64765022 369.24609375 796.62890625 C364.30407298 802.72737795 358.75215533 808.16601735 353.14208984 813.640625 C349.81773689 816.89041095 346.55309361 820.19796335 343.30078125 823.51953125 C336.85724728 830.07387923 330.43427248 836.34840482 323.20703125 842.0390625 C320.6959243 844.05649982 318.35207109 846.18338584 315.99609375 848.37890625 C309.29957815 854.47050681 301.98420193 859.73155509 294.68359375 865.06640625 C294.11688965 865.4850293 293.55018555 865.90365234 292.96630859 866.33496094 C241.42566329 904.39430652 182.81635229 931.33351617 120.6081543 946.3515625 C118.68361842 946.82197247 116.76295089 947.30855141 114.84692383 947.8125 C106.30963724 950.04571821 97.69307269 951.61749123 88.99609375 953.06640625 C87.83231201 953.26150284 87.83231201 953.26150284 86.64501953 953.46054077 C70.05585367 956.21462133 53.45302439 957.89655436 36.68359375 959.06640625 C35.68392578 959.13698242 34.68425781 959.20755859 33.65429688 959.28027344 C27.99920159 959.66171991 22.3495343 959.92140457 16.68359375 960.06640625 C15.9035498 960.08832031 15.12350586 960.11023438 14.31982422 960.1328125 C-82.96733693 962.48700878 -183.84506957 932.45083432 -300.31640625 848.06640625 C-301.21069336 847.32076416 -301.21069336 847.32076416 -302.12304688 846.56005859 C-319.5255463 832.00201401 -336.66856485 816.427953 -351.31640625 799.06640625 C-352.29765596 797.94631682 -353.28094447 796.82801205 -354.265625 795.7109375 C-360.77512966 788.30944306 -367.05151035 780.80950321 -372.94287109 772.90380859 C-374.46904305 770.8622213 -376.01230081 768.83404892 -377.5546875 766.8046875 C-386.48294993 754.96823312 -394.56329927 742.69958025 -402.31640625 730.06640625 C-402.77499023 729.32181152 -403.23357422 728.5772168 -403.70605469 727.81005859 C-440.64057377 667.48740536 -461.24274957 599.77857451 -468.94140625 529.75390625 C-469.06475342 528.63363037 -469.18810059 527.51335449 -469.31518555 526.35913086 C-470.88294485 511.50067853 -471.52436125 496.74590423 -471.50390625 481.81640625 C-471.503302 480.99114441 -471.50269775 480.16588257 -471.5020752 479.31561279 C-471.40124756 428.13083336 -463.22702326 377.70896601 -447.31640625 329.06640625 C-446.96449219 327.9371875 -446.61257813 326.80796875 -446.25 325.64453125 C-437.0766993 296.87808306 -424.23523721 269.26731662 -409.31640625 243.06640625 C-408.65294189 241.89658203 -408.65294189 241.89658203 -407.97607422 240.703125 C-402.18018318 230.53011731 -395.96638739 220.70100552 -389.31640625 211.06640625 C-388.60846924 210.03749268 -388.60846924 210.03749268 -387.88623047 208.98779297 C-375.67437702 191.29651995 -362.37518595 174.60256562 -347.80078125 158.796875 C-345.83683253 156.63838419 -343.92156808 154.45500388 -342.015625 152.24609375 C-338.30331745 147.99209541 -334.38165696 143.98349736 -330.37890625 140.00390625 C-329.71439453 139.33552734 -329.04988281 138.66714844 -328.36523438 137.97851562 C-324.40976322 134.03071754 -320.34462905 130.26890381 -316.11352539 126.6184082 C-313.87273051 124.68324544 -311.6890426 122.68902652 -309.50390625 120.69140625 C-276.65079344 91.12360472 -238.89972793 67.1970305 -199.20410156 47.98144531 C-197.92262776 47.3602653 -196.64339292 46.73444925 -195.36621094 46.10449219 C-157.59534793 27.48713582 -116.3470376 15.22450735 -75.04248047 7.57324219 C-72.66290158 7.1308272 -70.28853012 6.66804511 -67.9140625 6.19921875 C-45.73848691 1.99559244 -22.53039865 0.64589676 0 0 Z " fill="#FEFEFE" transform="translate(799.31640625,9.93359375)"/>
<path d="M0 0 C1.59556229 -0.00149551 1.59556229 -0.00149551 3.22335815 -0.00302124 C26.17800287 -0.00058211 48.82859716 0.87688025 71.625 3.625 C73.51683815 3.84516661 75.4087655 4.06456802 77.30078125 4.28320312 C105.34883945 7.55040676 105.34883945 7.55040676 114.625 9.9375 C115.26904785 10.10306396 115.9130957 10.26862793 116.57666016 10.43920898 C124.63969902 12.55368227 132.61120176 15.00050498 140.57739258 17.45043945 C142.26446238 17.96371807 143.95468638 18.46669492 145.6472168 18.96166992 C149.91409413 20.21152339 154.03653749 21.46214989 158.0625 23.375 C158.97902344 23.808125 159.89554688 24.24125 160.83984375 24.6875 C162.40412109 25.43 162.40412109 25.43 164 26.1875 C165.29211934 26.77271241 166.58514699 27.35592201 167.87890625 27.9375 C191.6358061 38.71162312 213.05576765 53.22225336 232 71.1875 C232.98347412 72.11997559 232.98347412 72.11997559 233.98681641 73.07128906 C244.76570986 83.37651712 254.43704812 93.97245743 263 106.1875 C263.51788086 106.92500488 264.03576172 107.66250977 264.56933594 108.42236328 C271.69988501 118.66839344 278.04205189 129.2258542 284 140.1875 C284.95687781 141.87582576 285.91493856 143.56348257 286.875 145.25 C290.54473912 151.90296242 293.05340326 158.9508523 295.7265625 166.046875 C296.77838645 168.64094389 297.9255305 170.95518087 299.3125 173.375 C302.02690095 178.68143136 301.91387702 183.84035535 300.36328125 189.51953125 C296.57011189 198.5601681 288.76749124 205.33682084 282 212.1875 C281.23155762 212.97495605 280.46311523 213.76241211 279.67138672 214.57373047 C270.82291949 223.63953472 262.04143085 232.44541128 252 240.1875 C250.91106018 241.08491094 249.82533189 241.98622765 248.7421875 242.890625 C238.37537828 251.48679463 227.33060592 258.92517361 216 266.1875 C215.3512793 266.60596191 214.70255859 267.02442383 214.03417969 267.45556641 C201.24120782 275.64008834 187.52262174 282.31226303 174 289.1875 C172.94570801 289.73140381 171.89141602 290.27530762 170.80517578 290.83569336 C165.05472554 293.77270243 159.3814785 296.35266722 153.25 298.375 C151.85910599 298.84686404 150.46847963 299.31951778 149.078125 299.79296875 C148.40442871 300.02072998 147.73073242 300.24849121 147.03662109 300.4831543 C142.62991863 302.00716971 138.28365433 303.69592245 133.9296875 305.36328125 C105.16569204 316.06701869 74.28632495 321.84277536 44 326.1875 C43.3158905 326.28673767 42.63178101 326.38597534 41.92694092 326.48822021 C22.1386032 329.3325174 2.55608644 330.558306 -17.4375 330.5625 C-18.88852615 330.56535507 -18.88852615 330.56535507 -20.36886597 330.56826782 C-30.88022222 330.56591676 -41.31229554 330.21369976 -51.78515625 329.2890625 C-52.66360703 329.21207123 -53.5420578 329.13507996 -54.4471283 329.05575562 C-59.66235078 328.54866434 -64.73516701 327.7246776 -69.8603363 326.63433838 C-72.55924831 326.07070893 -75.26865049 325.68426702 -78 325.3125 C-100.7775853 321.83480341 -122.73256274 314.95451815 -144 306.1875 C-145.14210938 305.72214844 -146.28421875 305.25679687 -147.4609375 304.77734375 C-150.31705589 303.60108341 -153.16370886 302.41077114 -156 301.1875 C-156.63349365 300.91671631 -157.2669873 300.64593262 -157.91967773 300.36694336 C-175.33615684 292.79600674 -192.04024993 283.45304675 -208 273.1875 C-209.03511719 272.52621094 -210.07023438 271.86492187 -211.13671875 271.18359375 C-228.87730708 259.59049442 -245.96450157 246.79152269 -261.55981445 232.42480469 C-263.87023137 230.30647947 -266.20755556 228.22250887 -268.55078125 226.140625 C-273.94068277 221.29011171 -279.15970438 216.28180154 -284.30639648 211.17626953 C-285.31500315 210.17927108 -286.32808328 209.18677905 -287.34545898 208.19873047 C-300.54721658 195.37464821 -300.54721658 195.37464821 -302.6640625 186.359375 C-302.53803205 178.54548728 -300.17811497 172.26785739 -297 165.1875 C-296.22076172 163.4240625 -296.22076172 163.4240625 -295.42578125 161.625 C-285.92758279 140.5203976 -274.38101728 120.35424865 -260 102.1875 C-259.10895466 101.01724702 -258.21835496 99.84665463 -257.328125 98.67578125 C-244.15849897 81.64382481 -228.49918213 65.76035179 -211 53.1875 C-209.92411532 52.37329041 -208.84991633 51.55684899 -207.77734375 50.73828125 C-200.92605833 45.58693123 -193.74315774 41.14409527 -186.3125 36.875 C-185.457771 36.38330322 -184.60304199 35.89160645 -183.72241211 35.38500977 C-177.63244105 31.9514828 -171.40375033 28.98689718 -165 26.1875 C-164.30479248 25.8793335 -163.60958496 25.57116699 -162.89331055 25.25366211 C-146.89091971 18.2297665 -130.15164534 12.60805605 -113 9.1875 C-111.70449219 8.91679688 -111.70449219 8.91679688 -110.3828125 8.640625 C-108.78462377 8.31202545 -107.18456749 7.99229521 -105.58227539 7.68432617 C-103.94283179 7.36889952 -102.30489536 7.04545023 -100.66918945 6.71118164 C-92.60217167 5.13063698 -84.4936273 4.37105843 -76.3125 3.6875 C-75.5695871 3.62468842 -74.82667419 3.56187683 -74.06124878 3.49716187 C-69.43407784 3.10744526 -64.80587873 2.73206442 -60.17700195 2.36322021 C-58.1572708 2.20019437 -56.13817239 2.02938052 -54.11914062 1.85791016 C-36.06952587 0.34576209 -18.10717555 0.00444647 0 0 Z " fill="#231F20" transform="translate(808,556.8125)"/>
<path d="M0 0 C16.60294758 -0.40494994 33.14306567 0.75084853 49.68359375 2.06640625 C50.84777832 2.15760742 52.01196289 2.24880859 53.21142578 2.34277344 C81.73927926 4.69023648 110.1861568 10.13476331 137.68359375 18.06640625 C138.91456787 18.41155273 138.91456787 18.41155273 140.17041016 18.76367188 C169.99304847 27.13452509 199.32906603 38.50168634 226.68359375 53.06640625 C227.46734375 53.47761719 228.25109375 53.88882813 229.05859375 54.3125 C240.39040241 60.272064 251.4584446 66.6245648 262.37109375 73.31640625 C263.43312012 73.96544922 264.49514648 74.61449219 265.58935547 75.28320312 C272.52454788 79.5788576 279.15105694 84.18256686 285.68359375 89.06640625 C286.26939209 89.49953125 286.85519043 89.93265625 287.45874023 90.37890625 C290.88608106 92.91590276 294.28213642 95.49488731 297.68359375 98.06640625 C298.71355469 98.83726563 299.74351562 99.608125 300.8046875 100.40234375 C318.38422566 113.64853522 334.50935638 128.70476365 350.05737305 144.25488281 C351.87465363 146.06996182 353.69983208 147.87684532 355.52539062 149.68359375 C362.38173019 156.50748118 368.66856544 163.48268367 374.68359375 171.06640625 C375.67809273 172.2307574 376.68078048 173.38821832 377.6953125 174.53515625 C401.62828492 201.60752516 421.97220764 233.64294897 437.72900391 266.13085938 C438.64842665 267.99510069 439.60125697 269.83693196 440.5703125 271.67578125 C449.65086482 289.03538816 456.75537428 307.51315099 462.98730469 326.0690918 C463.48820615 327.50593431 464.01557579 328.93364919 464.55957031 330.35473633 C467.84431714 338.98988707 470.21981147 347.82674959 472.55859375 356.75390625 C472.77702942 357.58687225 472.99546509 358.41983826 473.22052002 359.27804565 C483.44243742 398.49783051 488.89193237 438.75769936 488.93359375 479.31640625 C488.93493317 480.10210999 488.93627258 480.88781372 488.93765259 481.69732666 C488.93115265 499.58829221 487.55633889 517.28424527 485.68359375 535.06640625 C485.57144531 536.16082031 485.45929687 537.25523437 485.34375 538.3828125 C480.12671228 587.78365114 465.34056404 636.04958991 444.68359375 681.06640625 C444.26996582 681.97874023 443.85633789 682.89107422 443.43017578 683.83105469 C430.99764966 711.18160994 415.36023743 736.80705412 397.68359375 761.06640625 C397.18859375 761.74832031 396.69359375 762.43023438 396.18359375 763.1328125 C389.95564519 771.68002315 383.44001544 779.87011826 376.48046875 787.83203125 C373.98058032 790.69726197 371.6069728 793.64765022 369.24609375 796.62890625 C364.30407298 802.72737795 358.75215533 808.16601735 353.14208984 813.640625 C349.81773689 816.89041095 346.55309361 820.19796335 343.30078125 823.51953125 C336.85724728 830.07387923 330.43427248 836.34840482 323.20703125 842.0390625 C320.6959243 844.05649982 318.35207109 846.18338584 315.99609375 848.37890625 C309.29957815 854.47050681 301.98420193 859.73155509 294.68359375 865.06640625 C294.11688965 865.4850293 293.55018555 865.90365234 292.96630859 866.33496094 C241.42566329 904.39430652 182.81635229 931.33351617 120.6081543 946.3515625 C118.68361842 946.82197247 116.76295089 947.30855141 114.84692383 947.8125 C106.30963724 950.04571821 97.69307269 951.61749123 88.99609375 953.06640625 C87.83231201 953.26150284 87.83231201 953.26150284 86.64501953 953.46054077 C70.05585367 956.21462133 53.45302439 957.89655436 36.68359375 959.06640625 C35.68392578 959.13698242 34.68425781 959.20755859 33.65429688 959.28027344 C27.99920159 959.66171991 22.3495343 959.92140457 16.68359375 960.06640625 C15.9035498 960.08832031 15.12350586 960.11023438 14.31982422 960.1328125 C-82.96733693 962.48700878 -183.84506957 932.45083432 -300.31640625 848.06640625 C-301.21069336 847.32076416 -301.21069336 847.32076416 -302.12304688 846.56005859 C-319.5255463 832.00201401 -336.66856485 816.427953 -351.31640625 799.06640625 C-352.29765596 797.94631682 -353.28094447 796.82801205 -354.265625 795.7109375 C-360.77512966 788.30944306 -367.05151035 780.80950321 -372.94287109 772.90380859 C-374.46904305 770.8622213 -376.01230081 768.83404892 -377.5546875 766.8046875 C-386.48294993 754.96823312 -394.56329927 742.69958025 -402.31640625 730.06640625 C-402.77499023 729.32181152 -403.23357422 728.5772168 -403.70605469 727.81005859 C-440.64057377 667.48740536 -461.24274957 599.77857451 -468.94140625 529.75390625 C-469.06475342 528.63363037 -469.18810059 527.51335449 -469.31518555 526.35913086 C-470.88294485 511.50067853 -471.52436125 496.74590423 -471.50390625 481.81640625 C-471.503302 480.99114441 -471.50269775 480.16588257 -471.5020752 479.31561279 C-471.40124756 428.13083336 -463.22702326 377.70896601 -447.31640625 329.06640625 C-446.96449219 327.9371875 -446.61257813 326.80796875 -446.25 325.64453125 C-437.0766993 296.87808306 -424.23523721 269.26731662 -409.31640625 243.06640625 C-408.65294189 241.89658203 -408.65294189 241.89658203 -407.97607422 240.703125 C-402.18018318 230.53011731 -395.96638739 220.70100552 -389.31640625 211.06640625 C-388.60846924 210.03749268 -388.60846924 210.03749268 -387.88623047 208.98779297 C-375.67437702 191.29651995 -362.37518595 174.60256562 -347.80078125 158.796875 C-345.83683253 156.63838419 -343.92156808 154.45500388 -342.015625 152.24609375 C-338.30331745 147.99209541 -334.38165696 143.98349736 -330.37890625 140.00390625 C-329.71439453 139.33552734 -329.04988281 138.66714844 -328.36523438 137.97851562 C-324.40976322 134.03071754 -320.34462905 130.26890381 -316.11352539 126.6184082 C-313.87273051 124.68324544 -311.6890426 122.68902652 -309.50390625 120.69140625 C-276.65079344 91.12360472 -238.89972793 67.1970305 -199.20410156 47.98144531 C-197.92262776 47.3602653 -196.64339292 46.73444925 -195.36621094 46.10449219 C-157.59534793 27.48713582 -116.3470376 15.22450735 -75.04248047 7.57324219 C-72.66290158 7.1308272 -70.28853012 6.66804511 -67.9140625 6.19921875 C-45.73848691 1.99559244 -22.53039865 0.64589676 0 0 Z M-83.31640625 48.06640625 C-84.15719727 48.23108398 -84.99798828 48.39576172 -85.86425781 48.56542969 C-116.18652292 54.56393717 -145.64079962 65.03178901 -173.68725586 77.86962891 C-176.08805333 78.96246103 -178.50010939 80.02375986 -180.91796875 81.078125 C-212.8699784 95.25961372 -243.68870306 115.46841482 -270.31640625 138.06640625 C-271.36007994 138.93691435 -272.40438178 139.80666974 -273.44921875 140.67578125 C-285.08347256 150.40426273 -296.11533102 160.67845339 -306.83569336 171.40039062 C-308.50812275 173.0706172 -310.18844294 174.73263004 -311.86914062 176.39453125 C-318.47371405 182.96479898 -324.52294097 189.757948 -330.31640625 197.06640625 C-331.46031833 198.43458096 -332.60963229 199.79826704 -333.765625 201.15625 C-359.30932137 231.39821738 -380.9597948 266.55272413 -396.31640625 303.06640625 C-396.71601563 304.00742187 -397.115625 304.9484375 -397.52734375 305.91796875 C-400.60378975 313.2477562 -403.54675027 320.61508746 -406.31640625 328.06640625 C-406.57679688 328.76169434 -406.8371875 329.45698242 -407.10546875 330.17333984 C-416.4055399 355.18901021 -423.55696025 381.66137842 -426.921875 408.171875 C-427.27001985 410.72608623 -427.74805962 413.17940092 -428.31640625 415.69140625 C-430.05257802 424.03049898 -430.60232482 432.59143054 -431.31640625 441.06640625 C-431.37715332 441.77200684 -431.43790039 442.47760742 -431.50048828 443.20458984 C-434.34761603 477.99054176 -435.24581895 518.78756018 -426.34765625 552.765625 C-425.47962508 556.10734315 -424.96344108 559.41961206 -424.49609375 562.83984375 C-423.2777 571.07409549 -421.20549656 579.05872535 -419.11279297 587.10546875 C-418.44130049 589.69181359 -417.78251867 592.28116543 -417.125 594.87109375 C-414.92556142 603.45121268 -412.54171445 611.80474816 -409.31640625 620.06640625 C-407.71671141 624.65699535 -406.26029903 629.26265254 -404.94140625 633.94140625 C-403.88394847 637.49896792 -402.5975334 640.79844535 -401.02734375 644.16015625 C-399.25734321 647.99612042 -397.53645546 651.84456312 -395.87890625 655.73046875 C-382.42066903 687.14703305 -365.99303977 716.79883508 -345.31640625 744.06640625 C-344.86040039 744.67258789 -344.40439453 745.27876953 -343.93457031 745.90332031 C-335.79249702 756.71355282 -327.31339922 767.14470959 -318.08984375 777.046875 C-316.02899896 779.26466536 -314.04416397 781.53659563 -312.0703125 783.83203125 C-307.88030997 788.63924988 -303.39721726 793.1321281 -298.87890625 797.62890625 C-298.07130859 798.44037109 -297.26371094 799.25183594 -296.43164062 800.08789062 C-291.55592106 804.95575246 -286.55555548 809.59389241 -281.31640625 814.06640625 C-280.3521875 814.91203125 -279.38796875 815.75765625 -278.39453125 816.62890625 C-246.78872089 843.86927319 -209.83385525 867.80557995 -171.31640625 884.06640625 C-170.5793042 884.38085693 -169.84220215 884.69530762 -169.08276367 885.01928711 C-155.6125575 890.74211922 -142.00569841 895.64937128 -128.08032227 900.14111328 C-125.27416351 901.08054811 -122.50876612 902.10111553 -119.73828125 903.140625 C-114.64548625 905.01186365 -109.54233253 906.37476239 -104.25390625 907.56640625 C-103.33818848 907.77652344 -102.4224707 907.98664062 -101.47900391 908.203125 C-99.6195655 908.62887673 -97.75954676 909.05210268 -95.89892578 909.47265625 C-93.6541903 909.98874594 -91.42057046 910.53374401 -89.1875 911.09765625 C-78.8414535 913.64629475 -68.35505296 915.18879147 -57.81640625 916.69140625 C-57.0861322 916.79582031 -56.35585815 916.90023437 -55.60345459 917.0078125 C-51.22295688 917.62953993 -46.83912164 918.21727444 -42.45095825 918.78225708 C-40.44534136 919.04924255 -38.44397915 919.34765389 -36.44311523 919.64819336 C-21.75817836 921.72258015 -6.89245284 921.40570385 7.9050293 921.38208008 C11.04742717 921.37744059 14.18943881 921.38441083 17.33178711 921.40258789 C34.06510865 921.49854837 50.20796985 921.34426253 66.68359375 918.06640625 C68.97752312 917.74878042 71.27442838 917.45164777 73.57421875 917.1796875 C91.42684023 914.96535539 108.40597743 910.90312154 125.68359375 906.06640625 C126.80910645 905.75767578 127.93461914 905.44894531 129.09423828 905.13085938 C141.58925421 901.69871976 153.66213728 897.7443499 165.66259766 892.86425781 C169.97566832 891.16153796 174.37530782 889.69669682 178.765625 888.20703125 C181.65215178 887.07869682 184.0391193 885.67009979 186.68359375 884.06640625 C188.29959932 883.37028077 189.91664743 882.67638201 191.54101562 882 C224.15832625 867.78753466 254.96859998 848.32153825 282.68359375 826.06640625 C283.66714844 825.28265625 284.65070312 824.49890625 285.6640625 823.69140625 C288.36210508 821.51116982 291.02387337 819.29322212 293.68359375 817.06640625 C294.69357422 816.22609863 295.70355469 815.38579102 296.74414062 814.52001953 C305.09497647 807.50851807 312.95305635 800.11033998 320.63549805 792.37524414 C322.50542516 790.49452097 324.38592013 788.62483806 326.26757812 786.75585938 C333.20321735 779.82779293 339.58870736 772.75112406 345.68359375 765.06640625 C346.68968081 763.89021155 347.70412573 762.72106168 348.73046875 761.5625 C356.727021 752.53021486 363.80459979 742.96962152 370.68359375 733.06640625 C371.18358887 732.35000977 371.68358398 731.63361328 372.19873047 730.89550781 C384.48909039 713.18734004 395.44040956 694.54077455 404.68359375 675.06640625 C405.45132386 673.47371767 406.21957965 671.88128242 406.98828125 670.2890625 C411.14167672 661.64727917 415.15206059 652.98408275 418.68359375 644.06640625 C418.94881836 643.40850098 419.21404297 642.7505957 419.48730469 642.07275391 C431.10984874 613.22370783 440.78018384 581.72562943 444.2265625 550.74609375 C444.61158913 547.64613578 445.10381268 544.60845825 445.64404297 541.53344727 C449.22865349 520.09790666 449.20772294 498.18472806 449.24609375 476.50390625 C449.24798077 475.74288227 449.24986778 474.98185829 449.25181198 474.19777298 C449.30276994 446.33517489 447.35454161 419.41607791 441.68359375 392.06640625 C441.41908417 390.78334595 441.41908417 390.78334595 441.14923096 389.47436523 C436.23183177 365.87219437 429.70477263 342.67933364 420.60058594 320.3269043 C419.62278273 317.91649963 418.68263107 315.49310517 417.74609375 313.06640625 C416.07372936 308.86909954 414.13810406 304.87223656 412.02734375 300.87890625 C410.85802824 298.43150169 409.86522067 295.99970019 408.88671875 293.47265625 C396.34695843 261.79572438 375.98446107 232.47521828 354.68359375 206.06640625 C353.52730469 204.61814453 353.52730469 204.61814453 352.34765625 203.140625 C347.82984653 197.53695575 343.12250531 192.15431893 338.23828125 186.8671875 C336.2919062 184.73331761 334.40075026 182.57659253 332.51953125 180.38671875 C328.0399887 175.25403545 323.24738715 170.4461728 318.43359375 165.62890625 C317.55574219 164.73880859 316.67789063 163.84871094 315.7734375 162.93164062 C310.47863057 157.62520527 305.0186116 152.72616946 299.14526367 148.06665039 C296.7440641 146.11554178 294.49143905 144.06863162 292.24609375 141.94140625 C271.15020145 122.85621619 245.89290457 107.03193077 221.0234375 93.36279297 C218.72879581 92.09145038 216.45407168 90.79049649 214.18359375 89.4765625 C207.91377034 85.85814267 201.73040577 82.40918921 194.91796875 79.89453125 C191.8753041 78.76683037 188.93962785 77.43078673 185.984375 76.09375 C174.12791545 70.79960932 161.88240152 66.49992701 149.68359375 62.06640625 C148.52053711 61.64343262 148.52053711 61.64343262 147.33398438 61.21191406 C136.620543 57.35958835 125.63177981 54.56195036 114.59716797 51.79833984 C111.83246994 51.10380618 109.0725223 50.39252743 106.3125 49.6796875 C95.54737518 46.95315373 84.85526273 45.07836848 73.83203125 43.7421875 C70.29793971 43.30916715 66.82708343 42.73302014 63.33203125 42.0546875 C15.70434922 33.19809329 -36.22708932 38.61699223 -83.31640625 48.06640625 Z " fill="#242021" transform="translate(799.31640625,9.93359375)"/>
<path d="M0 0 C2.33222132 0.01061087 4.66365335 0.00011489 6.99584961 -0.01269531 C22.80495645 -0.02834645 37.61551434 1.71411805 52.79858398 6.26074219 C53.96776367 6.59332031 55.13694336 6.92589844 56.34155273 7.26855469 C61.75234194 8.8500742 66.87651084 10.50282029 71.82202148 13.23339844 C73.52343324 14.11772905 75.2846869 14.88515518 77.05249023 15.62792969 C115.05936821 31.74063391 148.4181167 66.18863076 164.04467773 104.29980469 C164.65771544 105.9934108 165.25238277 107.69399666 165.81420898 109.40527344 C166.69864867 111.97085046 167.69969057 114.43317587 168.74389648 116.93652344 C170.8159951 122.0800408 172.19852177 127.23579691 173.42358398 132.63574219 C173.62725586 133.49167969 173.83092773 134.34761719 174.04077148 135.22949219 C176.70541498 146.67379437 178.13963636 157.5531523 178.04858398 169.32324219 C178.04181641 170.59385498 178.03504883 171.86446777 178.02807617 173.17358398 C177.85455493 189.09415771 176.24759579 203.97439393 171.79858398 219.26074219 C171.58717773 220.01355469 171.37577148 220.76636719 171.15795898 221.54199219 C167.87649879 233.14157242 163.66974696 243.73313961 157.79858398 254.26074219 C157.45456543 254.88400391 157.11054687 255.50726563 156.75610352 256.14941406 C134.47855841 296.07243662 97.46958303 327.38970869 53.13842773 340.01855469 C44.38383914 342.35803687 35.78311189 344.33951691 26.73217773 345.01904297 C24.79435144 345.06032786 24.79435144 345.06032786 23.79858398 346.26074219 C21.67159298 346.36129568 19.54123081 346.3915605 17.41186523 346.39355469 C16.43167671 346.39498978 16.43167671 346.39498978 15.4316864 346.39645386 C14.03697616 346.39713671 12.64226279 346.39527514 11.24755859 346.39111328 C9.16487943 346.38587743 7.08242723 346.39099533 4.99975586 346.39746094 C-8.62113091 346.40814111 -21.58787262 345.53065765 -34.88891602 342.44824219 C-36.02135742 342.20009766 -37.15379883 341.95195313 -38.32055664 341.69628906 C-47.74549428 339.56387657 -56.65259542 336.74526587 -65.21313477 332.23339844 C-67.29677432 331.21409343 -69.38953405 330.46942544 -71.57641602 329.69824219 C-87.61694968 323.39572126 -103.52114888 311.81946953 -115.20141602 299.26074219 C-116.00579102 298.45636719 -116.81016602 297.65199219 -117.63891602 296.82324219 C-118.48454102 295.97761719 -119.33016602 295.13199219 -120.20141602 294.26074219 C-121.0425293 293.48923828 -121.0425293 293.48923828 -121.90063477 292.70214844 C-142.9605998 272.83828689 -155.21254254 244.55073398 -163.20141602 217.26074219 C-163.62293945 215.85695313 -163.62293945 215.85695313 -164.05297852 214.42480469 C-173.12639721 181.70550696 -171.64098298 136.89066519 -155.26391602 106.38574219 C-153.81564749 103.59648429 -152.68362036 100.84742829 -151.63891602 97.88574219 C-146.19198685 84.05564861 -136.80578297 71.48580446 -127.20141602 60.26074219 C-126.73123047 59.7107959 -126.26104492 59.16084961 -125.77661133 58.59423828 C-107.747054 37.77540956 -84.23236288 20.60217807 -58.20141602 11.26074219 C-57.05415039 10.83921875 -55.90688477 10.41769531 -54.72485352 9.98339844 C-47.03814658 7.19191013 -39.49878839 4.50329445 -31.38891602 3.26074219 C-27.27206524 2.63630282 -27.27206524 2.63630282 -23.20410156 1.76171875 C-15.5135708 -0.07673348 -7.85657239 -0.04234032 0 0 Z " fill="#231F20" transform="translate(803.201416015625,173.7392578125)"/>
<path d="M0 0 C0.66 0.33 1.32 0.66 2 1 C-4.93 7.93 -11.86 14.86 -19 22 C-19.66 21.67 -20.32 21.34 -21 21 C-14.32497556 13.59083582 -7.66925098 6.41040928 0 0 Z " fill="#434040" transform="translate(697,213)"/>
</svg>
