<?xml version="1.0" standalone="no"?>
<!DOCTYPE svg PUBLIC "-//W3C//DTD SVG 20010904//EN"
 "http://www.w3.org/TR/2001/REC-SVG-20010904/DTD/svg10.dtd">
<svg version="1.0" xmlns="http://www.w3.org/2000/svg"
 width="500.000000pt" height="500.000000pt" viewBox="0 0 500.000000 500.000000"
 preserveAspectRatio="xMidYMid meet">

<g transform="translate(0.000000,500.000000) scale(0.100000,-0.100000)"
fill="#000000" stroke="none">
<path d="M663 3759 c-69 -20 -162 -155 -150 -217 3 -15 -5 -142 -18 -282 -82
-856 -155 -1886 -140 -1967 6 -35 44 -63 85 -63 59 0 161 66 197 128 25 43 27
56 40 296 8 138 19 328 26 421 l12 170 115 5 c133 6 164 18 210 82 57 78 62
159 13 198 -22 17 -41 20 -132 20 -58 0 -123 3 -145 7 l-38 6 6 71 c25 291 68
750 73 789 l6 49 281 -3 c311 -3 310 -4 372 63 44 47 54 69 54 128 0 64 -11
85 -51 99 -40 14 -769 14 -816 0z"/>
<path d="M3555 3751 c-39 -24 -71 -60 -84 -93 -6 -15 -28 -101 -50 -192 -50
-207 -120 -419 -171 -516 -40 -78 -45 -78 -53 -5 -7 59 12 406 33 595 21 199
17 215 -48 214 -51 -1 -134 -53 -156 -99 -24 -47 -68 -446 -70 -625 -1 -170
12 -263 47 -325 44 -78 108 -99 204 -69 47 14 72 31 128 86 38 37 71 68 73 68
2 0 1 -33 -3 -72 -12 -126 20 -158 115 -117 66 28 107 76 114 131 2 24 10 156
16 293 6 138 19 342 30 455 11 113 20 215 20 228 0 56 -83 82 -145 43z"/>
<path d="M2531 3737 c-126 -49 -228 -193 -281 -395 -20 -78 -29 -243 -19 -349
23 -249 113 -375 269 -377 138 -2 231 65 304 218 24 50 48 105 54 121 21 56
53 219 48 242 -14 55 -68 68 -135 33 -63 -32 -86 -68 -105 -166 -20 -97 -47
-175 -75 -210 -15 -19 -21 -21 -41 -11 -56 28 -90 150 -90 323 0 137 21 238
67 326 l28 53 3 -80 c2 -43 8 -85 14 -92 31 -37 165 14 200 77 16 29 19 50 15
120 -4 106 -23 144 -80 171 -54 24 -108 23 -176 -4z"/>
<path d="M1838 3730 c-177 -74 -253 -209 -294 -520 -50 -385 87 -677 292 -621
155 43 256 181 303 418 38 190 36 363 -5 529 -42 167 -166 249 -296 194z m47
-234 c40 -60 57 -297 34 -461 -13 -96 -43 -196 -68 -226 l-18 -23 -16 31 c-43
81 -57 424 -24 557 17 69 54 146 69 146 4 0 14 -11 23 -24z"/>
<path d="M4073 3736 c-182 -59 -314 -251 -316 -461 -2 -136 40 -197 188 -275
44 -24 90 -49 102 -56 30 -19 40 -76 19 -109 -24 -37 -44 -31 -66 20 -23 53
-50 64 -106 40 -126 -52 -157 -175 -65 -258 49 -44 100 -61 166 -54 157 16
299 168 313 334 10 131 -39 204 -189 277 -100 49 -129 84 -129 156 0 85 48
180 91 180 31 0 44 -29 42 -99 -2 -79 13 -107 60 -116 48 -9 100 16 136 66 29
39 31 48 31 132 0 77 -4 96 -26 137 -16 29 -40 55 -63 68 -49 28 -134 36 -188
18z"/>
<path d="M1411 2583 c-53 -27 -71 -61 -81 -144 -16 -128 -39 -435 -55 -699 -8
-140 -17 -301 -20 -356 -5 -86 -4 -104 10 -118 24 -23 72 -20 122 9 74 44 72
38 93 435 13 244 26 423 47 663 14 166 14 190 1 203 -24 24 -79 27 -117 7z"/>
<path d="M3542 2508 c-8 -8 -12 -47 -12 -109 0 -104 8 -123 52 -117 22 3 23 7
26 107 3 106 -4 131 -37 131 -9 0 -22 -5 -29 -12z"/>
<path d="M4186 2504 c-19 -18 -23 -173 -6 -205 12 -21 50 -25 68 -7 15 15 16
181 2 209 -13 23 -43 25 -64 3z"/>
<path d="M3399 2331 l-29 -29 0 -386 0 -385 24 -28 24 -28 256 -3 256 -3 0 40
0 41 -237 2 -238 3 -3 283 -2 282 445 0 445 0 0 -80 0 -80 41 0 40 0 -3 176
-3 176 -28 24 c-16 14 -41 24 -58 24 -27 0 -29 -3 -29 -35 0 -49 -36 -85 -85
-85 -45 0 -73 27 -81 80 l-7 40 -238 0 -239 0 0 -38 c0 -50 -32 -82 -82 -82
-45 0 -78 37 -78 86 0 31 -3 34 -31 34 -20 0 -40 -10 -60 -29z"/>
<path d="M1805 2272 c-112 -54 -181 -152 -226 -318 -18 -66 -22 -109 -23 -259
-1 -165 1 -186 23 -254 56 -172 165 -232 299 -165 143 71 228 263 239 539 12
294 -60 460 -207 480 -37 5 -56 1 -105 -23z m67 -218 c24 -42 42 -193 35 -301
-10 -155 -58 -321 -90 -310 -38 12 -67 261 -49 424 12 108 53 228 76 220 6 -2
18 -17 28 -33z"/>
<path d="M2250 2281 c-19 -10 -46 -33 -59 -52 -23 -33 -23 -38 -17 -174 11
-230 41 -486 72 -610 41 -169 126 -230 241 -174 54 26 88 67 128 153 l32 68
12 -48 c40 -165 123 -227 236 -175 125 56 183 213 270 728 39 238 41 252 21
278 -29 40 -147 9 -177 -46 -6 -11 -28 -124 -50 -252 -44 -263 -79 -427 -90
-427 -16 0 -54 290 -64 490 -11 241 -17 260 -76 260 -35 0 -96 -29 -122 -58
-14 -16 -30 -86 -62 -274 -45 -262 -72 -393 -85 -417 -17 -31 -53 244 -71 529
-12 203 -17 220 -73 220 -17 0 -47 -8 -66 -19z"/>
<path d="M3532 1953 l3 -78 60 -2 c96 -2 95 -3 95 83 l0 74 -80 0 -81 0 3 -77z"/>
<path d="M3772 1953 l3 -78 65 -1 c36 -1 71 1 78 3 8 4 12 29 12 79 l0 74 -80
0 -81 0 3 -77z"/>
<path d="M4016 1958 c1 -40 2 -75 3 -78 1 -3 35 -6 76 -7 l75 -2 0 79 0 80
-78 0 -78 0 2 -72z"/>
<path d="M4290 1869 c-87 -13 -159 -57 -211 -127 -117 -160 -60 -391 119 -479
80 -39 192 -40 273 -2 71 33 125 87 158 158 38 81 37 193 -2 273 -61 125 -201
199 -337 177z m165 -107 c76 -39 116 -107 118 -202 4 -145 -97 -245 -243 -243
-131 2 -215 82 -227 213 -10 109 48 209 142 245 54 20 158 14 210 -13z"/>
<path d="M4278 1709 c-15 -8 -18 -26 -18 -114 0 -125 0 -125 122 -125 99 0
125 12 114 53 -6 26 -9 27 -81 27 l-75 0 0 69 c0 50 -4 74 -16 85 -18 19 -23
19 -46 5z"/>
<path d="M3530 1710 l0 -80 80 0 80 0 0 80 0 80 -80 0 -80 0 0 -80z"/>
<path d="M3770 1710 l0 -80 80 0 80 0 0 80 0 80 -80 0 -80 0 0 -80z"/>
</g>
</svg>
